<svg width="40" height="40" viewBox="0 0 40 40" fill="none" xmlns="http://www.w3.org/2000/svg">
<g clip-path="url(#clip0_63_26)">
<path d="M20 13.1667C18.6485 13.1667 17.3273 13.5674 16.2036 14.3183C15.0799 15.0691 14.204 16.1364 13.6868 17.385C13.1696 18.6336 13.0343 20.0076 13.298 21.3331C13.5616 22.6586 14.2125 23.8763 15.1681 24.832C16.1238 25.7875 17.3413 26.4383 18.6668 26.702C19.9925 26.9656 21.3663 26.8303 22.615 26.3131C23.8637 25.796 24.9308 24.9201 25.6817 23.7965C26.4327 22.6726 26.8333 21.3515 26.8333 20C26.8355 19.102 26.6603 18.2125 26.3177 17.3825C25.975 16.5523 25.4718 15.7982 24.8368 15.1632C24.2018 14.5282 23.4477 14.025 22.6177 13.6823C21.7875 13.3397 20.898 13.1645 20 13.1667ZM20 24.45C19.1198 24.45 18.2595 24.189 17.5277 23.7C16.796 23.2111 16.2256 22.5161 15.8888 21.703C15.552 20.8898 15.4638 19.9951 15.6355 19.1318C15.8072 18.2686 16.2311 17.4756 16.8533 16.8533C17.4757 16.231 18.2687 15.8072 19.1318 15.6355C19.9952 15.4638 20.8898 15.5519 21.703 15.8887C22.5162 16.2255 23.2112 16.796 23.7 17.5276C24.189 18.2595 24.45 19.1198 24.45 20C24.45 21.1801 23.9812 22.3121 23.1467 23.1466C22.3122 23.9811 21.1802 24.45 20 24.45ZM28.7167 12.8833C28.7167 13.213 28.619 13.5352 28.4358 13.8093C28.2527 14.0833 27.9923 14.297 27.6878 14.4231C27.3833 14.5493 27.0482 14.5823 26.7248 14.518C26.4015 14.4537 26.1047 14.2949 25.8715 14.0618C25.6385 13.8288 25.4797 13.5318 25.4153 13.2085C25.351 12.8852 25.384 12.5501 25.5102 12.2455C25.6363 11.941 25.85 11.6807 26.124 11.4976C26.3982 11.3144 26.7203 11.2167 27.05 11.2167C27.492 11.2167 27.916 11.3923 28.2285 11.7048C28.5412 12.0174 28.7167 12.4413 28.7167 12.8833ZM33.2333 14.55C33.2818 12.478 32.509 10.471 31.0833 8.96665C29.587 7.5228 27.579 6.73158 25.5 6.76665C23.3333 6.66665 16.6667 6.66665 14.5 6.76665C12.4287 6.7218 10.423 7.49417 8.91668 8.91665C7.49108 10.421 6.71822 12.428 6.76668 14.5C6.66668 16.6666 6.66668 23.3333 6.76668 25.5C6.71822 27.572 7.49108 29.579 8.91668 31.0833C10.423 32.5058 12.4287 33.2781 14.5 33.2333C16.7 33.3666 23.3 33.3666 25.5 33.2333C27.572 33.2818 29.579 32.509 31.0833 31.0833C32.509 29.579 33.2818 27.572 33.2333 25.5C33.3333 23.3333 33.3333 16.6666 33.2333 14.5V14.55ZM30.4 27.8833C30.1737 28.4566 29.8322 28.9771 29.3963 29.413C28.9605 29.8488 28.44 30.1903 27.8667 30.4166C25.2793 30.9398 22.6343 31.1191 20 30.95C17.3713 31.1193 14.7317 30.94 12.15 30.4166C11.5768 30.1903 11.0561 29.8488 10.6204 29.413C10.1846 28.9771 9.84298 28.4566 9.61668 27.8833C8.91668 26.1166 9.06668 21.95 9.06668 20.0166C9.06668 18.0833 8.91668 13.9 9.61668 12.15C9.8366 11.5711 10.1758 11.0449 10.6122 10.6056C11.0487 10.1663 11.5726 9.82368 12.15 9.59998C14.7317 9.07662 17.3713 8.89728 20 9.06665C22.6343 8.89757 25.2793 9.0769 27.8667 9.59998C28.44 9.82628 28.9605 10.1679 29.3963 10.6037C29.8322 11.0395 30.1737 11.5601 30.4 12.1333C31.1 13.9 30.9333 18.0666 30.9333 20C30.9333 21.9333 31.1 26.1166 30.4 27.8666V27.8833Z" fill="#FEFFEF"/>
</g>
<defs>
<clipPath id="clip0_63_26">
<rect width="40" height="40" fill="white"/>
</clipPath>
</defs>
</svg>
