<svg width="91" height="108" viewBox="0 0 91 108" fill="none" xmlns="http://www.w3.org/2000/svg">
<g clip-path="url(#clip0_63_23)">
<path d="M43.7887 14.9589C44.0958 12.6426 47.4471 12.6426 47.7541 14.9589L51.7248 44.9174C51.8365 45.7604 52.4691 46.4406 53.3019 46.613L79.5146 52.0416C81.6405 52.4818 81.6405 55.5182 79.5146 55.9584L53.3019 61.387C52.4691 61.5594 51.8365 62.2396 51.7248 63.0826L47.7541 93.0411C47.4471 95.3574 44.0957 95.3574 43.7887 93.0411L39.818 63.0826C39.7063 62.2396 39.0737 61.5594 38.241 61.387L12.0282 55.9584C9.90228 55.5182 9.90228 52.4818 12.0282 52.0416L38.241 46.613C39.0737 46.4406 39.7063 45.7604 39.818 44.9174L43.7887 14.9589Z" fill="#E66B5B"/>
<path d="M29.7545 41.088C28.4384 39.2492 30.7061 36.9815 32.5449 38.2976L44.2928 46.7061C44.9889 47.2043 45.9248 47.2043 46.6209 46.7061L58.3689 38.2976C60.2076 36.9815 62.4753 39.2492 61.1592 41.088L52.7507 52.836C52.2525 53.532 52.2525 54.468 52.7507 55.164L61.1592 66.912C62.4753 68.7508 60.2076 71.0185 58.3689 69.7024L46.6209 61.2939C45.9248 60.7957 44.9889 60.7957 44.2928 61.2939L32.5449 69.7024C30.7061 71.0185 28.4384 68.7508 29.7545 66.912L38.163 55.164C38.6612 54.468 38.6612 53.532 38.163 52.836L29.7545 41.088Z" fill="#E66B5B"/>
</g>
<defs>
<clipPath id="clip0_63_23">
<rect width="90.9137" height="108" fill="white"/>
</clipPath>
</defs>
</svg>
