<svg width="40" height="40" viewBox="0 0 40 40" fill="none" xmlns="http://www.w3.org/2000/svg">
<g clip-path="url(#clip0_63_25)">
<path d="M31.2 6.6667H8.95C8.66322 6.65327 8.37658 6.69652 8.10653 6.794C7.83648 6.89148 7.58832 7.04126 7.37622 7.23476C7.16413 7.42828 6.99228 7.66173 6.87053 7.92173C6.74878 8.18175 6.6795 8.46321 6.66667 8.75003V31.0501C6.68347 31.6502 6.92943 32.2214 7.35405 32.6459C7.77867 33.0706 8.34973 33.3166 8.95 33.3334H31.2C31.7835 33.3074 32.3337 33.0537 32.7325 32.6269C33.1313 32.2001 33.347 31.6341 33.3333 31.0501V8.75003C33.3382 8.47087 33.2858 8.19368 33.1797 7.93545C33.0735 7.67723 32.9157 7.44341 32.7158 7.24833C32.5162 7.05326 32.2787 6.90107 32.018 6.80105C31.7573 6.70103 31.479 6.65532 31.2 6.6667ZM15 28.9001H11.1167V17.0167H15V28.9001ZM13.15 15.2167C12.879 15.2261 12.609 15.1794 12.3569 15.0795C12.1049 14.9796 11.8762 14.8287 11.6852 14.6362C11.4943 14.4437 11.3452 14.2137 11.2474 13.9609C11.1495 13.708 11.105 13.4376 11.1167 13.1667C11.1047 12.8929 11.1501 12.6196 11.2499 12.3643C11.3498 12.109 11.5019 11.8775 11.6965 11.6845C11.8911 11.4914 12.1238 11.3412 12.3799 11.2434C12.636 11.1457 12.9096 11.1025 13.1833 11.1167C13.4543 11.1073 13.7243 11.1539 13.9764 11.2538C14.2285 11.3537 14.4572 11.5047 14.6481 11.6972C14.8391 11.8897 14.9882 12.1196 15.086 12.3725C15.1838 12.6254 15.2283 12.8958 15.2167 13.1667C15.2287 13.4405 15.1833 13.7138 15.0834 13.9691C14.9836 14.2243 14.8315 14.4559 14.6369 14.6489C14.4423 14.842 14.2095 14.9922 13.9535 15.0899C13.6974 15.1877 13.4237 15.2309 13.15 15.2167ZM28.9 28.9001H25V22.4001C25 20.8501 24.45 19.7834 23.0667 19.7834C22.637 19.7871 22.2188 19.9236 21.8698 20.1742C21.5207 20.4249 21.2577 20.7774 21.1167 21.1834C21.0083 21.4877 20.963 21.8109 20.9833 22.1334V28.9001H17.15V17.0167H20.9833V18.6834C21.3242 18.0572 21.8313 17.5376 22.449 17.1816C23.0667 16.8257 23.7707 16.6475 24.4833 16.6667C27 16.6667 28.9 18.3334 28.9 21.8834V28.9001Z" fill="#FEFFEF"/>
</g>
<defs>
<clipPath id="clip0_63_25">
<rect width="40" height="40" fill="white"/>
</clipPath>
</defs>
</svg>
