<svg width="36" height="42" viewBox="0 0 36 42" fill="none" xmlns="http://www.w3.org/2000/svg">
<g clip-path="url(#clip0_63_2)">
<path d="M17.3043 3.73973C17.3811 3.16065 18.2189 3.16065 18.2957 3.73973L20.1411 17.6634C20.169 17.8741 20.3272 18.0442 20.5354 18.0873L32.2358 20.5104C32.7673 20.6205 32.7673 21.3795 32.2358 21.4896L20.5354 23.9127C20.3272 23.9558 20.169 24.1259 20.1411 24.3366L18.2957 38.2603C18.2189 38.8393 17.3811 38.8393 17.3043 38.2603L15.4589 24.3366C15.431 24.1259 15.2728 23.9558 15.0646 23.9127L3.36419 21.4896C2.83272 21.3795 2.83272 20.6205 3.36419 20.5104L15.0646 18.0873C15.2728 18.0442 15.431 17.8741 15.4589 17.6634L17.3043 3.73973Z" fill="#E66B5B"/>
<path d="M10.5953 14.6153C10.2663 14.1556 10.8333 13.5887 11.2929 13.9177L17.3867 18.2792C17.5607 18.4038 17.7947 18.4038 17.9687 18.2792L24.0624 13.9177C24.5221 13.5887 25.089 14.1556 24.76 14.6153L20.3985 20.709C20.2739 20.883 20.2739 21.117 20.3985 21.291L24.76 27.3847C25.089 27.8444 24.5221 28.4113 24.0624 28.0823L17.9687 23.7208C17.7947 23.5962 17.5607 23.5962 17.3867 23.7208L11.2929 28.0823C10.8333 28.4113 10.2663 27.8444 10.5953 27.3847L14.9569 21.291C15.0814 21.117 15.0814 20.883 14.9569 20.709L10.5953 14.6153Z" fill="#E66B5B"/>
</g>
<defs>
<clipPath id="clip0_63_2">
<rect width="35.3553" height="42" fill="white"/>
</clipPath>
</defs>
</svg>
